# Blender v3.4.1 OBJ File: ''
# www.blender.org
mtllib CardPlane.mtl
o Plane_Plane.002
v -5.362647 -0.015080 -7.297289
v -5.143881 -0.015080 -7.387643
v 6.016045 -0.015080 -7.397270
v -5.535837 -0.015080 -7.142329
v -5.677123 -0.015080 -6.919006
v -5.727257 -0.015080 -6.741258
v -5.729618 -0.015080 8.214299
v -5.672647 -0.015080 8.397870
v -5.568202 -0.015080 8.568781
v -5.419446 -0.015080 8.714372
v -5.245370 -0.015080 8.815652
v -5.039644 -0.015080 8.856797
v 6.063368 -0.015080 8.863039
v 6.262764 -0.015080 8.821894
v 6.436840 -0.015080 8.714283
v 6.595091 -0.015080 8.549702
v 6.683711 -0.015080 8.375626
v 6.740682 -0.015080 8.163569
v 6.738604 -0.015080 -6.594738
v 6.209462 -0.015080 -7.368697
v 6.367713 -0.015080 -7.285175
v 6.512776 -0.015080 -7.173080
v 6.622673 -0.015080 -7.034611
v 6.688611 -0.015080 -6.891746
v 6.730371 -0.015080 -6.724703
vt 0.000000 0.000000
vt 0.000000 0.000000
vt 0.000000 0.000000
vt 0.000000 0.000000
vt 0.000000 0.000000
vt 0.000000 0.000000
vt 0.000000 0.000000
vt 0.000000 0.000000
vt 0.000000 0.000000
vt 0.000000 0.000000
vt 0.000000 0.000000
vt 0.000000 0.000000
vt 0.000000 0.000000
vt 0.000000 0.000000
vt 0.000000 0.000000
vt 0.000000 0.000000
vt 0.000000 0.000000
vt 0.000000 0.000000
vt 0.000000 0.000000
vt 0.000000 0.000000
vt 0.000000 0.000000
vt 0.000000 0.000000
vt 0.000000 0.000000
vt 0.000000 0.000000
vt 0.000000 0.000000
vn 0.0000 -1.0000 -0.0000
usemtl None
s off
f 2/1/1 3/2/1 20/3/1 21/4/1 22/5/1 23/6/1 24/7/1 25/8/1 19/9/1 18/10/1 17/11/1 16/12/1 15/13/1 14/14/1 13/15/1 12/16/1 11/17/1 10/18/1 9/19/1 8/20/1 7/21/1 6/22/1 5/23/1 4/24/1 1/25/1
